<svg xmlns="http://www.w3.org/2000/svg" xmlns:xlink="http://www.w3.org/1999/xlink" version="1.1" x="0px" y="0px" viewBox="0 0 100 125" enable-background="new 0 0 100 100" xml:space="preserve"><path fill="#000000" d="M69.64,23.122c0.213,0.601,0.403,1.694,0.403,2.729c0,0,3.542,0.335,4.048,0  c0.506-0.334,1.69-1.502,1.69-4.098c0-2.599-1.185-3.764-1.69-4.099s-4.048,0-4.048,0c0,1.487-0.39,2.085-0.678,2.769h-2.043  c0.327-6.361,0.556-11.084,0.556-12.051c0-2.979-2.434-2.841-2.434-2.841H35.578c0,0-2.435-0.097-2.435,2.841  c0,0.967,0.229,5.689,0.557,12.051h-1.85c-0.287-0.684-0.677-1.281-0.677-2.769c0,0-3.542-0.335-4.048,0s-1.69,1.5-1.69,4.099  c0,2.596,1.185,3.764,1.69,4.098c0.506,0.335,4.048,0,4.048,0c0-1.035,0.19-2.129,0.402-2.729h2.264  c0.266,5.096,0.576,10.954,0.878,16.679h-1.6c-0.287-0.683-0.677-1.281-0.677-2.769c0,0-3.542-0.335-4.048,0  s-1.689,1.502-1.689,4.099s1.184,3.763,1.689,4.098s4.048,0,4.048,0c0-1.034,0.19-2.128,0.402-2.729h2.017  c0.339,6.441,0.653,12.52,0.863,16.904h-1.836c-0.287-0.684-0.677-1.282-0.677-2.77c0,0-3.542-0.335-4.048,0  s-1.689,1.501-1.689,4.099c0,2.597,1.184,3.764,1.689,4.099s4.048,0,4.048,0c0-1.035,0.19-2.129,0.402-2.73h2.235  c0.086,1.922,0.136,3.266,0.136,3.804c0,8.277,4.057,10.386,4.057,17.933H60.98c0-7.547,4.058-9.655,4.058-17.933  c0-0.538,0.05-1.882,0.136-3.804h2.43c0.212,0.602,0.402,1.695,0.402,2.73c0,0,3.542,0.335,4.048,0s1.69-1.502,1.69-4.099  c0-2.598-1.185-3.764-1.69-4.099s-4.048,0-4.048,0c0,1.487-0.39,2.086-0.678,2.77h-2.029c0.21-4.385,0.524-10.463,0.863-16.904  h2.211c0.212,0.601,0.402,1.694,0.402,2.729c0,0,3.542,0.335,4.048,0c0.505-0.335,1.689-1.501,1.689-4.098s-1.185-3.764-1.689-4.099  c-0.506-0.335-4.048,0-4.048,0c0,1.487-0.39,2.086-0.677,2.769h-1.794c0.302-5.725,0.613-11.583,0.878-16.679H69.64z M60,19.087  c1.48,0,2.682,1.201,2.682,2.683c0,1.477-1.201,2.677-2.682,2.677c-1.479,0-2.683-1.2-2.683-2.677  C57.317,20.288,58.521,19.087,60,19.087z M37.644,21.593c0-1.479,1.201-2.681,2.682-2.681c1.478,0,2.508,1.376,2.508,2.855  c0,1.482-1.206,2.679-2.683,2.679C38.67,24.446,37.644,23.075,37.644,21.593z M41.448,63.804c-1.479,0-2.681-1.201-2.681-2.683  c0-1.478,1.201-2.68,2.681-2.68c1.479,0,2.683,1.202,2.683,2.68C44.131,62.603,42.927,63.804,41.448,63.804z M41.246,43.794  c-1.48,0-2.682-1.201-2.682-2.683c0-1.479,1.201-2.68,2.682-2.68c1.478,0,2.683,1.201,2.683,2.68  C43.929,42.593,42.724,43.794,41.246,43.794z M56.484,41.272c0-1.481,1.203-2.683,2.682-2.683c1.481,0,2.682,1.201,2.682,2.683  c0,1.479-1.2,2.68-2.682,2.68C57.688,43.952,56.484,42.751,56.484,41.272z M60.105,63.804c-1.478,0-2.683-1.201-2.683-2.681  c0-1.48,1.205-2.682,2.683-2.682c1.479,0,2.68,1.201,2.68,2.682C62.785,62.603,61.584,63.804,60.105,63.804z"/><g><rect x="40.041" y="86.529" fill="#000000" width="20.939" height="9.002"/></g></svg>
