<svg xmlns="http://www.w3.org/2000/svg" xmlns:xlink="http://www.w3.org/1999/xlink" version="1.1" x="0px" y="0px" viewBox="0 0 100 125" enable-background="new 0 0 100 100" xml:space="preserve"><path fill="#000000" d="M68.163,10.932c-17.51,0-13.404-5.4-17.598-5.4c-4.191,0-0.086,5.4-17.596,5.4  c-3.885,0-3.012,2.934-3.012,2.934s2.971,33.759,4.018,47.705c1.049,13.946,4.979,14.031,4.979,22.11h11.611h11.613  c0-8.079,3.93-8.164,4.979-22.11s4.018-47.705,4.018-47.705S72.048,10.932,68.163,10.932z M41.376,60.518  c-0.875,0.957-2.344,1.009-3.285,0.118c-0.936-0.891-0.99-2.39-0.115-3.347c0.875-0.956,2.348-1.01,3.285-0.117  C42.198,58.061,42.253,59.561,41.376,60.518z M41.376,33.846c-0.875,0.956-2.344,1.007-3.285,0.117  c-0.936-0.89-0.99-2.388-0.115-3.346c0.875-0.957,2.348-1.01,3.285-0.118C42.198,31.389,42.253,32.89,41.376,33.846z M63.04,60.636  c-0.939,0.891-2.408,0.839-3.285-0.118c-0.875-0.957-0.822-2.457,0.117-3.346c0.938-0.893,2.41-0.839,3.283,0.117  C64.03,58.246,63.978,59.745,63.04,60.636z M63.04,33.963c-0.939,0.89-2.408,0.839-3.285-0.117  c-0.875-0.956-0.822-2.457,0.117-3.347c0.938-0.892,2.41-0.839,3.283,0.118C64.03,31.575,63.978,33.073,63.04,33.963z"/><rect x="38.954" y="86.586" fill="#000000" width="23.225" height="8.945"/>
</svg>